PathFileType	4	(X/Y/Z)	c:/Users/goper/Files/vsCode/490R/osim_files/A01/A01_PWS_06.trc
DataRate	CameraRate	NumFrames	NumMarkers	Units                	OrigDataRate	OrigDataStartFrame	OrigNumFrames
120.00	120.00	4	36	mm	120.0	994	1135
                Frame#	Time	Mobility_markerset:LPSIS			Mobility_markerset:LASIS			Mobility_markerset:LTH1			Mobility_markerset:LTH2			Mobility_markerset:LTH3			Mobility_markerset:LTH4			Mobility_markerset:LLFE			Mobility_markerset:LMFE			Mobility_markerset:LSH1			Mobility_markerset:LSH2			Mobility_markerset:LSH3			Mobility_markerset:LSH4			Mobility_markerset:LLMAL			Mobility_markerset:LMMAL			Mobility_markerset:LCAL			Mobility_markerset:LMTP5			Mobility_markerset:LTOE			Mobility_markerset:LMTP1			Mobility_markerset:RPSIS			Mobility_markerset:RASIS			Mobility_markerset:RTH1			Mobility_markerset:RTH2			Mobility_markerset:RTH3			Mobility_markerset:RTH4			Mobility_markerset:RLFE			Mobility_markerset:RMFE			Mobility_markerset:RSH1			Mobility_markerset:RSH2			Mobility_markerset:RSH3			Mobility_markerset:RSH4			Mobility_markerset:RLMAL			Mobility_markerset:RMMAL			Mobility_markerset:RCAL			Mobility_markerset:RMTP1			Mobility_markerset:RTOE			Mobility_markerset:RMTP5		
		X1	Y1	Z1	X2	Y2	Z2	X3	Y3	Z3	X4	Y4	Z4	X5	Y5	Z5	X6	Y6	Z6	X7	Y7	Z7	X8	Y8	Z8	X9	Y9	Z9	X10	Y10	Z10	X11	Y11	Z11	X12	Y12	Z12	X13	Y13	Z13	X14	Y14	Z14	X15	Y15	Z15	X16	Y16	Z16	X17	Y17	Z17	X18	Y18	Z18	X19	Y19	Z19	X20	Y20	Z20	X21	Y21	Z21	X22	Y22	Z22	X23	Y23	Z23	X24	Y24	Z24	X25	Y25	Z25	X26	Y26	Z26	X27	Y27	Z27	X28	Y28	Z28	X29	Y29	Z29	X30	Y30	Z30	X31	Y31	Z31	X32	Y32	Z32	X33	Y33	Z33	X34	Y34	Z34	X35	Y35	Z35	X36	Y36	Z36

994	8.27500	0.00000	0.00000	0.00000	-3938.62695	997.14954	634.72546	0.00000	0.00000	0.00000	-3903.23999	634.00134	623.64685	-3908.88379	695.30676	663.69312	-3928.87549	653.44781	664.54681	0.00000	0.00000	0.00000	-4110.27002	566.32214	620.49030	0.00000	0.00000	0.00000	0.00000	0.00000	0.00000	-4027.55005	374.43481	672.44159	0.00000	0.00000	0.00000	-4082.44458	92.71306	640.99640	-4162.72314	98.89390	612.41241	-4109.51855	61.05553	558.09705	0.00000	0.00000	0.00000	-4177.57520	83.91523	792.10443	-4207.29102	72.13815	769.97095	-3951.35107	1058.79102	337.13794	-4146.44092	985.29211	472.78296	-4070.68823	694.75098	260.77106	-4068.55640	651.11224	265.58316	-4114.99951	690.37439	305.59378	-4106.66992	648.47095	301.82108	-4052.47607	505.90488	288.23328	0.00000	0.00000	0.00000	-3930.73999	349.16681	186.60878	-3922.20850	305.74423	176.24550	-3983.83374	328.23474	210.01012	-3968.70068	287.24704	197.49500	-3882.51099	124.39213	167.91281	-3868.52734	129.81340	255.01129	0.00000	0.00000	0.00000	-3970.99219	51.72815	306.78098	-4021.76270	56.86535	281.08890	-3998.42676	37.09630	193.48555
995	8.28333	0.00000	0.00000	0.00000	-3941.49634	996.88281	640.81720	0.00000	0.00000	0.00000	-3906.36572	634.49597	627.80524	-3911.87476	695.12653	667.51556	-3932.92920	653.57812	668.55206	0.00000	0.00000	0.00000	-4113.20654	565.85565	623.52173	0.00000	0.00000	0.00000	0.00000	0.00000	0.00000	-4029.48828	374.13815	674.58905	0.00000	0.00000	0.00000	-4083.05420	92.42500	641.54425	-4162.94678	98.52541	612.92743	-4109.67432	61.12915	558.29187	-4108.47119	51.84921	785.14551	-4177.98779	82.39237	792.36121	-4207.71436	70.67007	770.21222	-3956.77661	1058.23755	342.85083	-4150.48047	984.56750	480.21936	-4076.59619	694.29810	267.12036	-4074.48999	650.64496	271.94659	-4120.64355	689.95148	312.24585	-4112.40527	648.09448	308.42517	-4058.18896	505.37296	294.07077	0.00000	0.00000	0.00000	-3934.81812	350.98386	190.32768	-3925.83203	307.73279	179.37527	-3987.69116	329.22256	213.57497	-3972.12891	288.53116	200.54587	-3883.69116	126.44511	168.46678	0.00000	0.00000	0.00000	0.00000	0.00000	0.00000	-3971.25391	51.89730	306.83121	-4022.07056	56.70154	281.16809	-3998.57300	37.36015	193.61496
996	8.29167	0.00000	0.00000	0.00000	-3944.14331	996.90448	646.88953	0.00000	0.00000	0.00000	0.00000	0.00000	0.00000	-3916.22852	695.34003	672.19208	-3937.27295	653.48071	673.02795	0.00000	0.00000	0.00000	-4116.06201	565.41119	626.54456	0.00000	0.00000	0.00000	0.00000	0.00000	0.00000	-4031.79126	373.93640	677.04114	0.00000	0.00000	0.00000	-4083.59790	92.25284	642.07684	-4163.21094	98.19466	613.26544	-4110.62305	61.73430	557.44458	-4109.54102	50.67713	785.43652	-4179.44434	80.86259	793.01587	-4208.62500	68.93490	770.32623	-3962.22998	1057.90759	348.71942	-4154.42090	983.93378	487.80295	-4082.70874	693.84198	273.83475	-4080.72827	650.23737	278.59015	-4126.45898	689.62335	319.21973	-4118.34131	647.72620	315.30353	-4064.19287	504.90652	300.29001	0.00000	0.00000	0.00000	-3939.06152	352.93222	194.41241	-3929.79004	310.10394	182.83063	-3991.71240	330.36832	217.37299	-3975.67505	289.98059	203.78070	-3886.03174	129.88869	169.48134	0.00000	0.00000	0.00000	0.00000	0.00000	0.00000	-3970.73193	51.13602	306.30115	-4022.41577	56.63549	281.21387	-3998.69287	37.68309	193.79887
997	8.30000	0.00000	0.00000	0.00000	-3946.69751	997.23401	652.96539	0.00000	0.00000	0.00000	-3913.62280	634.78729	637.60565	-3921.12769	695.42242	677.46405	-3941.31055	654.03772	677.29010	0.00000	0.00000	0.00000	-4118.82129	565.05365	629.59375	0.00000	0.00000	0.00000	0.00000	0.00000	0.00000	-4032.91821	373.77982	678.88043	0.00000	0.00000	0.00000	-4084.16138	92.05797	642.67639	-4163.45264	97.91250	613.56274	-4110.61768	61.92655	557.74786	-4110.95605	49.81301	785.81158	-4180.22119	79.08085	793.00104	-4209.65137	67.13416	770.51062	-3967.65869	1057.65649	354.71777	-4158.23145	983.25635	495.61792	-4091.41919	695.01782	279.56793	-4087.11328	649.80988	285.56567	-4132.42920	689.41010	326.51538	-4124.45117	647.43097	322.60556	-4070.51001	504.49640	306.88055	0.00000	0.00000	0.00000	-3943.58203	355.19528	198.70892	-3933.70142	312.44730	186.57808	-3995.86768	331.67130	221.42200	-3979.47070	291.70013	207.29242	-3888.10645	133.24818	170.55118	-3874.18091	135.47203	258.27820	0.00000	0.00000	0.00000	-3971.86621	52.19027	306.96176	-4022.77661	56.60604	281.20731	-3998.81812	38.05907	193.99983
